# xmcd
#
# Track frame offsets:
#	150
#	3975
#	29937
#	58830
#	73627
#	97402
#	118980
#	136312
#	149127
#	169175
#	192050
#	212845
#	230845
#	258730
#	279467
#	280987
#	312935
#
# Disc length: 4223 seconds
#
# Revision: 4
# Processed by: cddbd v1.5.2PL0 Copyright (c) Steve Scherf et al.
# Submitted via: EZCDAudioConverter 1.3.4.1
#
DISCID=20107d11
DTITLE=Various Artist - Short Cuts
DYEAR=1993
DGENRE=
TTITLE0=Open On Helicopters
TTITLE1=Annie Ross and The Low Note Quintet - Conversation On A Barstool
TTITLE2=Annie Ross and The Low Note Quintet - To Hell With Love
TTITLE3=Annie Ross and The Low Note Quintet - Punishing Kiss
TTITLE4=Lori Singer and The Trout Quartet - Cello Concerto In B Minor
TTITLE5=Annie Ross and The Low Note Quintet - Blue
TTITLE6=Annie Ross and The Low Note Quintet - Evil California (These Blues)
TTITLE7=Lori Singer - ''Berceuse'' From ''The Firebird Suite''
TTITLE8=Annie Ross and The Low Note Quintet - A Thousand Years
TTITLE9=Lori Singer and The Trout Quartet - Cello Concerto No. 2, Opus 30
TTITLE10=Annie Ross and The Low Note Quintet - Imitation Of A Kiss
TTITLE11=Annie Ross and The Low Note Quintet - Full Moon
TTITLE12=Annie Ross and The Low Note Quintet - I Don't Know You
TTITLE13=Low Note Quintet - Nothing Can Stop Me Now
TTITLE14=Annie Ross and The Low Note Quintet - Earthquake
TTITLE15=Annie Ross and The Low Note Quintet - Ending Credit Music Medley: Priso
TTITLE15=ner Of Life - I'm Gonna Go Fishin'
TTITLE16=Thomas Tree and Cory J. Coppage - How Does She Do It So Quickly?
EXTD=
EXTT0=
EXTT1=
EXTT2=
EXTT3=
EXTT4=
EXTT5=
EXTT6=
EXTT7=
EXTT8=
EXTT9=
EXTT10=
EXTT11=
EXTT12=
EXTT13=
EXTT14=
EXTT15=
EXTT16=
PLAYORDER=
